<svg xmlns="http://www.w3.org/2000/svg" xmlns:xlink="http://www.w3.org/1999/xlink" width="706" height="245" contentScriptType="application/ecmascript" contentStyleType="text/css" preserveAspectRatio="none" style="width:706px;height:245px" version="1.1" viewBox="0 0 706 245" zoomAndPan="magnify"><defs><filter id="f17ywwzq6r7pgd" width="300%" height="300%" x="-1" y="-1"><feGaussianBlur result="blurOut" stdDeviation="2"/><feColorMatrix in="blurOut" result="blurOut2" type="matrix" values="0 0 0 0 0 0 0 0 0 0 0 0 0 0 0 0 0 0 .4 0"/><feOffset dx="4" dy="4" in="blurOut2" result="blurOut3"/><feBlend in="SourceGraphic" in2="blurOut3" mode="normal"/></filter></defs><g><rect width="10" height="145.664" x="265.5" y="69.297" fill="#FFF" filter="url(#f17ywwzq6r7pgd)" style="stroke:#a80036;stroke-width:1"/><line style="stroke:#a80036;stroke-width:1;stroke-dasharray:5,5" x1="54" x2="54" y1="38.297" y2="233.094"/><line style="stroke:#a80036;stroke-width:1;stroke-dasharray:5,5" x1="270" x2="270" y1="38.297" y2="233.094"/><line style="stroke:#a80036;stroke-width:1;stroke-dasharray:5,5" x1="426" x2="426" y1="38.297" y2="233.094"/><line style="stroke:#a80036;stroke-width:1;stroke-dasharray:5,5" x1="538" x2="538" y1="38.297" y2="233.094"/><line style="stroke:#a80036;stroke-width:1;stroke-dasharray:5,5" x1="651" x2="651" y1="38.297" y2="233.094"/><rect width="89" height="30.297" x="8" y="3" fill="#FEFECE" filter="url(#f17ywwzq6r7pgd)" style="stroke:#a80036;stroke-width:1.5"/><text x="15" y="22.995" fill="#000" font-family="sans-serif" font-size="14" lengthAdjust="spacingAndGlyphs" textLength="75">Application</text><rect width="133" height="30.297" x="202" y="3" fill="#FEFECE" filter="url(#f17ywwzq6r7pgd)" style="stroke:#a80036;stroke-width:1.5"/><text x="209" y="22.995" fill="#000" font-family="sans-serif" font-size="14" lengthAdjust="spacingAndGlyphs" textLength="119">ShaderGenerator</text><rect width="87" height="30.297" x="381" y="3" fill="#FEFECE" filter="url(#f17ywwzq6r7pgd)" style="stroke:#a80036;stroke-width:1.5"/><text x="388" y="22.995" fill="#000" font-family="sans-serif" font-size="14" lengthAdjust="spacingAndGlyphs" textLength="73">SGMaterial</text><rect width="108" height="30.297" x="482" y="3" fill="#FEFECE" filter="url(#f17ywwzq6r7pgd)" style="stroke:#a80036;stroke-width:1.5"/><text x="489" y="22.995" fill="#000" font-family="sans-serif" font-size="14" lengthAdjust="spacingAndGlyphs" textLength="94">SGTechnique</text><rect width="91" height="30.297" x="604" y="3" fill="#FEFECE" filter="url(#f17ywwzq6r7pgd)" style="stroke:#a80036;stroke-width:1.5"/><text x="611" y="22.995" fill="#000" font-family="sans-serif" font-size="14" lengthAdjust="spacingAndGlyphs" textLength="77">SGScheme</text><rect width="10" height="145.664" x="265.5" y="69.297" fill="#FFF" filter="url(#f17ywwzq6r7pgd)" style="stroke:#a80036;stroke-width:1"/><polygon fill="#A80036" points="253.5 65.297 263.5 69.297 253.5 73.297 257.5 69.297" style="stroke:#a80036;stroke-width:1"/><line style="stroke:#a80036;stroke-width:1" x1="54.5" x2="259.5" y1="69.297" y2="69.297"/><text x="61.5" y="64.364" fill="#000" font-family="sans-serif" font-size="13" lengthAdjust="spacingAndGlyphs" textLength="192">createShaderBasedTechnique</text><polygon fill="#A80036" points="414.5 94.43 424.5 98.43 414.5 102.43 418.5 98.43" style="stroke:#a80036;stroke-width:1"/><line style="stroke:#a80036;stroke-width:1" x1="275.5" x2="420.5" y1="98.43" y2="98.43"/><text x="282.5" y="93.497" fill="#000" font-family="sans-serif" font-size="13" lengthAdjust="spacingAndGlyphs" textLength="77">&lt;&lt; new &gt;&gt;</text><polygon fill="#A80036" points="526 123.563 536 127.563 526 131.563 530 127.563" style="stroke:#a80036;stroke-width:1"/><line style="stroke:#a80036;stroke-width:1" x1="275.5" x2="532" y1="127.563" y2="127.563"/><text x="282.5" y="122.629" fill="#000" font-family="sans-serif" font-size="13" lengthAdjust="spacingAndGlyphs" textLength="77">&lt;&lt; new &gt;&gt;</text><polygon fill="#A80036" points="414.5 152.695 424.5 156.695 414.5 160.695 418.5 156.695" style="stroke:#a80036;stroke-width:1"/><line style="stroke:#a80036;stroke-width:1" x1="275.5" x2="420.5" y1="156.695" y2="156.695"/><text x="282.5" y="151.762" fill="#000" font-family="sans-serif" font-size="13" lengthAdjust="spacingAndGlyphs" textLength="127">addTechnique(tech)</text><polygon fill="#A80036" points="639.5 181.828 649.5 185.828 639.5 189.828 643.5 185.828" style="stroke:#a80036;stroke-width:1"/><line style="stroke:#a80036;stroke-width:1" x1="275.5" x2="645.5" y1="185.828" y2="185.828"/><text x="282.5" y="180.895" fill="#000" font-family="sans-serif" font-size="13" lengthAdjust="spacingAndGlyphs" textLength="77">&lt;&lt; new &gt;&gt;</text><polygon fill="#A80036" points="639.5 210.961 649.5 214.961 639.5 218.961 643.5 214.961" style="stroke:#a80036;stroke-width:1"/><line style="stroke:#a80036;stroke-width:1" x1="270.5" x2="645.5" y1="214.961" y2="214.961"/><text x="277.5" y="210.028" fill="#000" font-family="sans-serif" font-size="13" lengthAdjust="spacingAndGlyphs" textLength="160">addTechniqueEntry(tech)</text></g></svg>