<svg xmlns="http://www.w3.org/2000/svg" xmlns:xlink="http://www.w3.org/1999/xlink" width="930" height="500" contentScriptType="application/ecmascript" contentStyleType="text/css" preserveAspectRatio="none" style="width:930px;height:500px" version="1.1" viewBox="0 0 930 500" zoomAndPan="magnify"><defs><filter id="f130xdpkrjsxnv" width="300%" height="300%" x="-1" y="-1"><feGaussianBlur result="blurOut" stdDeviation="2"/><feColorMatrix in="blurOut" result="blurOut2" type="matrix" values="0 0 0 0 0 0 0 0 0 0 0 0 0 0 0 0 0 0 .4 0"/><feOffset dx="4" dy="4" in="blurOut2" result="blurOut3"/><feBlend in="SourceGraphic" in2="blurOut3" mode="normal"/></filter></defs><g><rect width="10" height="100.398" x="194.5" y="71.43" fill="#FFF" filter="url(#f130xdpkrjsxnv)" style="stroke:#a80036;stroke-width:1"/><rect width="10" height="118.531" x="467.5" y="171.828" fill="#FFF" filter="url(#f130xdpkrjsxnv)" style="stroke:#a80036;stroke-width:1"/><rect width="10" height="193.664" x="645.5" y="290.359" fill="#FFF" filter="url(#f130xdpkrjsxnv)" style="stroke:#a80036;stroke-width:1"/><rect width="10" height="71.266" x="822.5" y="361.625" fill="#FFF" filter="url(#f130xdpkrjsxnv)" style="stroke:#a80036;stroke-width:1"/><rect width="308.5" height="46.266" x="427" y="215.961" fill="#FFF" filter="url(#f130xdpkrjsxnv)" style="stroke:#000;stroke-width:2"/><line style="stroke:#a80036;stroke-width:1;stroke-dasharray:5,5" x1="73" x2="73" y1="40.297" y2="493.023"/><line style="stroke:#a80036;stroke-width:1;stroke-dasharray:5,5" x1="199" x2="199" y1="40.297" y2="493.023"/><line style="stroke:#a80036;stroke-width:1;stroke-dasharray:5,5" x1="338" x2="338" y1="40.297" y2="493.023"/><line style="stroke:#a80036;stroke-width:1;stroke-dasharray:5,5" x1="472" x2="472" y1="40.297" y2="493.023"/><line style="stroke:#a80036;stroke-width:1;stroke-dasharray:5,5" x1="650.5" x2="650.5" y1="40.297" y2="493.023"/><line style="stroke:#a80036;stroke-width:1;stroke-dasharray:5,5" x1="827.5" x2="827.5" y1="40.297" y2="493.023"/><rect width="133" height="30.297" x="5" y="5" fill="#FEFECE" filter="url(#f130xdpkrjsxnv)" style="stroke:#a80036;stroke-width:1.5"/><text x="12" y="24.995" fill="#000" font-family="sans-serif" font-size="14" lengthAdjust="spacingAndGlyphs" textLength="119">ShaderGenerator</text><rect width="91" height="30.297" x="152" y="5" fill="#FEFECE" filter="url(#f130xdpkrjsxnv)" style="stroke:#a80036;stroke-width:1.5"/><text x="159" y="24.995" fill="#000" font-family="sans-serif" font-size="14" lengthAdjust="spacingAndGlyphs" textLength="77">SGScheme</text><rect width="99" height="30.297" x="287" y="5" fill="#FEFECE" filter="url(#f130xdpkrjsxnv)" style="stroke:#a80036;stroke-width:1.5"/><text x="294" y="24.995" fill="#000" font-family="sans-serif" font-size="14" lengthAdjust="spacingAndGlyphs" textLength="85">SGTechniqe</text><rect width="67" height="30.297" x="437" y="5" fill="#FEFECE" filter="url(#f130xdpkrjsxnv)" style="stroke:#a80036;stroke-width:1.5"/><text x="444" y="24.995" fill="#000" font-family="sans-serif" font-size="14" lengthAdjust="spacingAndGlyphs" textLength="53">SGPass</text><rect width="146" height="30.297" x="575.5" y="5" fill="#FEFECE" filter="url(#f130xdpkrjsxnv)" style="stroke:#a80036;stroke-width:1.5"/><text x="582.5" y="24.995" fill="#000" font-family="sans-serif" font-size="14" lengthAdjust="spacingAndGlyphs" textLength="132">TargetRenderState</text><rect width="132" height="30.297" x="759.5" y="5" fill="#FEFECE" filter="url(#f130xdpkrjsxnv)" style="stroke:#a80036;stroke-width:1.5"/><text x="766.5" y="24.995" fill="#000" font-family="sans-serif" font-size="14" lengthAdjust="spacingAndGlyphs" textLength="118">ProgramManager</text><rect width="10" height="100.398" x="194.5" y="71.43" fill="#FFF" filter="url(#f130xdpkrjsxnv)" style="stroke:#a80036;stroke-width:1"/><rect width="10" height="118.531" x="467.5" y="171.828" fill="#FFF" filter="url(#f130xdpkrjsxnv)" style="stroke:#a80036;stroke-width:1"/><rect width="10" height="193.664" x="645.5" y="290.359" fill="#FFF" filter="url(#f130xdpkrjsxnv)" style="stroke:#a80036;stroke-width:1"/><rect width="10" height="71.266" x="822.5" y="361.625" fill="#FFF" filter="url(#f130xdpkrjsxnv)" style="stroke:#a80036;stroke-width:1"/><polygon fill="#A80036" points="182.5 67.43 192.5 71.43 182.5 75.43 186.5 71.43" style="stroke:#a80036;stroke-width:1"/><line style="stroke:#a80036;stroke-width:1" x1="73.5" x2="188.5" y1="71.43" y2="71.43"/><text x="80.5" y="66.364" fill="#000" font-family="sans-serif" font-size="13" lengthAdjust="spacingAndGlyphs" textLength="50">validate</text><line style="stroke:#a80036;stroke-width:1" x1="204.5" x2="246.5" y1="100.563" y2="100.563"/><line style="stroke:#a80036;stroke-width:1" x1="246.5" x2="246.5" y1="100.563" y2="113.563"/><line style="stroke:#a80036;stroke-width:1" x1="205.5" x2="246.5" y1="113.563" y2="113.563"/><polygon fill="#A80036" points="215.5 109.563 205.5 113.563 215.5 117.563 211.5 113.563" style="stroke:#a80036;stroke-width:1"/><text x="211.5" y="95.497" fill="#000" font-family="sans-serif" font-size="13" lengthAdjust="spacingAndGlyphs" textLength="96">syncWithScene</text><polygon fill="#A80036" points="326.5 138.695 336.5 142.695 326.5 146.695 330.5 142.695" style="stroke:#a80036;stroke-width:1"/><line style="stroke:#a80036;stroke-width:1" x1="204.5" x2="332.5" y1="142.695" y2="142.695"/><text x="211.5" y="137.629" fill="#000" font-family="sans-serif" font-size="13" lengthAdjust="spacingAndGlyphs" textLength="110">buildRenderState</text><polygon fill="#A80036" points="455.5 167.828 465.5 171.828 455.5 175.828 459.5 171.828" style="stroke:#a80036;stroke-width:1"/><line style="stroke:#a80036;stroke-width:1" x1="338.5" x2="461.5" y1="171.828" y2="171.828"/><text x="345.5" y="166.762" fill="#000" font-family="sans-serif" font-size="13" lengthAdjust="spacingAndGlyphs" textLength="110">buildRenderState</text><polygon fill="#A80036" points="638.5 196.961 648.5 200.961 638.5 204.961 642.5 200.961" style="stroke:#a80036;stroke-width:1"/><line style="stroke:#a80036;stroke-width:1" x1="477.5" x2="644.5" y1="200.961" y2="200.961"/><text x="484.5" y="195.895" fill="#000" font-family="sans-serif" font-size="13" lengthAdjust="spacingAndGlyphs" textLength="77">&lt;&lt; new &gt;&gt;</text><path fill="#EEE" d="M427,215.9609 L504,215.9609 L504,222.9609 L494,232.9609 L427,232.9609 L427,215.9609" style="stroke:#000;stroke-width:1"/><rect width="308.5" height="46.266" x="427" fill="none" style="stroke:#000;stroke-width:2" y="215.961"/><text x="442" y="229.028" fill="#000" font-family="sans-serif" font-size="13" font-weight="bold" lengthAdjust="spacingAndGlyphs" textLength="32">loop</text><text x="519" y="228.171" fill="#000" font-family="sans-serif" font-size="11" font-weight="bold" lengthAdjust="spacingAndGlyphs" textLength="129">[globalRenderState]</text><polygon fill="#A80036" points="638.5 250.227 648.5 254.227 638.5 258.227 642.5 254.227" style="stroke:#a80036;stroke-width:1"/><line style="stroke:#a80036;stroke-width:1" x1="477.5" x2="644.5" y1="254.227" y2="254.227"/><text x="484.5" y="249.161" fill="#000" font-family="sans-serif" font-size="13" lengthAdjust="spacingAndGlyphs" textLength="129">addSubRenderState</text><polygon fill="#A80036" points="633.5 286.359 643.5 290.359 633.5 294.359 637.5 290.359" style="stroke:#a80036;stroke-width:1"/><line style="stroke:#a80036;stroke-width:1" x1="472.5" x2="639.5" y1="290.359" y2="290.359"/><text x="479.5" y="285.293" fill="#000" font-family="sans-serif" font-size="13" lengthAdjust="spacingAndGlyphs" textLength="149">acquirePrograms(Pass)</text><line style="stroke:#a80036;stroke-width:1" x1="655.5" x2="697.5" y1="319.492" y2="319.492"/><line style="stroke:#a80036;stroke-width:1" x1="697.5" x2="697.5" y1="319.492" y2="332.492"/><line style="stroke:#a80036;stroke-width:1" x1="656.5" x2="697.5" y1="332.492" y2="332.492"/><polygon fill="#A80036" points="666.5 328.492 656.5 332.492 666.5 336.492 662.5 332.492" style="stroke:#a80036;stroke-width:1"/><text x="662.5" y="314.426" fill="#000" font-family="sans-serif" font-size="13" lengthAdjust="spacingAndGlyphs" textLength="128">createCpuPrograms</text><polygon fill="#A80036" points="810.5 357.625 820.5 361.625 810.5 365.625 814.5 361.625" style="stroke:#a80036;stroke-width:1"/><line style="stroke:#a80036;stroke-width:1" x1="655.5" x2="816.5" y1="361.625" y2="361.625"/><text x="662.5" y="356.559" fill="#000" font-family="sans-serif" font-size="13" lengthAdjust="spacingAndGlyphs" textLength="129">createGpuPrograms</text><line style="stroke:#a80036;stroke-width:1" x1="832.5" x2="874.5" y1="390.758" y2="390.758"/><line style="stroke:#a80036;stroke-width:1" x1="874.5" x2="874.5" y1="390.758" y2="403.758"/><line style="stroke:#a80036;stroke-width:1" x1="833.5" x2="874.5" y1="403.758" y2="403.758"/><polygon fill="#A80036" points="843.5 399.758 833.5 403.758 843.5 407.758 839.5 403.758" style="stroke:#a80036;stroke-width:1"/><text x="839.5" y="385.692" fill="#000" font-family="sans-serif" font-size="13" lengthAdjust="spacingAndGlyphs" textLength="84">hash(source)</text><polygon fill="#A80036" points="666.5 428.891 656.5 432.891 666.5 436.891 662.5 432.891" style="stroke:#a80036;stroke-width:1"/><line style="stroke:#a80036;stroke-width:1;stroke-dasharray:2,2" x1="660.5" x2="826.5" y1="432.891" y2="432.891"/><text x="672.5" y="427.825" fill="#000" font-family="sans-serif" font-size="13" lengthAdjust="spacingAndGlyphs" textLength="99">GpuProgramPtr</text><line style="stroke:#a80036;stroke-width:1" x1="655.5" x2="697.5" y1="462.023" y2="462.023"/><line style="stroke:#a80036;stroke-width:1" x1="697.5" x2="697.5" y1="462.023" y2="475.023"/><line style="stroke:#a80036;stroke-width:1" x1="656.5" x2="697.5" y1="475.023" y2="475.023"/><polygon fill="#A80036" points="666.5 471.023 656.5 475.023 666.5 479.023 662.5 475.023" style="stroke:#a80036;stroke-width:1"/><text x="662.5" y="456.957" fill="#000" font-family="sans-serif" font-size="13" lengthAdjust="spacingAndGlyphs" textLength="153">bindUniformParameters</text></g></svg>