<svg xmlns="http://www.w3.org/2000/svg" xmlns:xlink="http://www.w3.org/1999/xlink" width="1117" height="588" contentScriptType="application/ecmascript" contentStyleType="text/css" preserveAspectRatio="none" style="width:1117px;height:588px" version="1.1" viewBox="0 0 1117 588" zoomAndPan="magnify"><defs><filter id="f1iybt0az3ys7e" width="300%" height="300%" x="-1" y="-1"><feGaussianBlur result="blurOut" stdDeviation="2"/><feColorMatrix in="blurOut" result="blurOut2" type="matrix" values="0 0 0 0 0 0 0 0 0 0 0 0 0 0 0 0 0 0 .4 0"/><feOffset dx="4" dy="4" in="blurOut2" result="blurOut3"/><feBlend in="SourceGraphic" in2="blurOut3" mode="normal"/></filter></defs><g><rect width="10" height="488.727" x="182.5" y="69.297" fill="#FFF" filter="url(#f1iybt0az3ys7e)" style="stroke:#a80036;stroke-width:1"/><rect width="10" height="445.594" x="371.5" y="98.43" fill="#FFF" filter="url(#f1iybt0az3ys7e)" style="stroke:#a80036;stroke-width:1"/><rect width="10" height="14.133" x="376.5" y="452.891" fill="#FFF" filter="url(#f1iybt0az3ys7e)" style="stroke:#a80036;stroke-width:1"/><rect width="10" height="402.461" x="498.5" y="127.563" fill="#FFF" filter="url(#f1iybt0az3ys7e)" style="stroke:#a80036;stroke-width:1"/><rect width="10" height="359.328" x="604.5" y="156.695" fill="#FFF" filter="url(#f1iybt0az3ys7e)" style="stroke:#a80036;stroke-width:1"/><rect width="10" height="316.195" x="722.5" y="185.828" fill="#FFF" filter="url(#f1iybt0az3ys7e)" style="stroke:#a80036;stroke-width:1"/><rect width="10" height="273.063" x="840.5" y="214.961" fill="#FFF" filter="url(#f1iybt0az3ys7e)" style="stroke:#a80036;stroke-width:1"/><rect width="10" height="29.133" x="1042.5" y="394.625" fill="#FFF" filter="url(#f1iybt0az3ys7e)" style="stroke:#a80036;stroke-width:1"/><rect width="800" height="160.664" x="306.5" y="314.359" fill="#FFF" filter="url(#f1iybt0az3ys7e)" style="stroke:#000;stroke-width:2"/><line style="stroke:#a80036;stroke-width:1;stroke-dasharray:5,5" x1="54" x2="54" y1="38.297" y2="576.023"/><line style="stroke:#a80036;stroke-width:1;stroke-dasharray:5,5" x1="187" x2="187" y1="38.297" y2="576.023"/><line style="stroke:#a80036;stroke-width:1;stroke-dasharray:5,5" x1="376.5" x2="376.5" y1="38.297" y2="576.023"/><line style="stroke:#a80036;stroke-width:1;stroke-dasharray:5,5" x1="503.5" x2="503.5" y1="38.297" y2="576.023"/><line style="stroke:#a80036;stroke-width:1;stroke-dasharray:5,5" x1="609.5" x2="609.5" y1="38.297" y2="576.023"/><line style="stroke:#a80036;stroke-width:1;stroke-dasharray:5,5" x1="727" x2="727" y1="38.297" y2="576.023"/><line style="stroke:#a80036;stroke-width:1;stroke-dasharray:5,5" x1="845.5" x2="845.5" y1="38.297" y2="576.023"/><line style="stroke:#a80036;stroke-width:1;stroke-dasharray:5,5" x1="1047.5" x2="1047.5" y1="38.297" y2="576.023"/><rect width="89" height="30.297" x="8" y="3" fill="#FEFECE" filter="url(#f1iybt0az3ys7e)" style="stroke:#a80036;stroke-width:1.5"/><text x="15" y="22.995" fill="#000" font-family="sans-serif" font-size="14" lengthAdjust="spacingAndGlyphs" textLength="75">Application</text><rect width="47" height="30.297" x="162" y="3" fill="#FEFECE" filter="url(#f1iybt0az3ys7e)" style="stroke:#a80036;stroke-width:1.5"/><text x="169" y="22.995" fill="#000" font-family="sans-serif" font-size="14" lengthAdjust="spacingAndGlyphs" textLength="33">Root</text><rect width="116" height="30.297" x="316.5" y="3" fill="#FEFECE" filter="url(#f1iybt0az3ys7e)" style="stroke:#a80036;stroke-width:1.5"/><text x="323.5" y="22.995" fill="#000" font-family="sans-serif" font-size="14" lengthAdjust="spacingAndGlyphs" textLength="102">RenderSystem</text><rect width="110" height="30.297" x="446.5" y="3" fill="#FEFECE" filter="url(#f1iybt0az3ys7e)" style="stroke:#a80036;stroke-width:1.5"/><text x="453.5" y="22.995" fill="#000" font-family="sans-serif" font-size="14" lengthAdjust="spacingAndGlyphs" textLength="96">RenderTarget</text><rect width="74" height="30.297" x="570.5" y="3" fill="#FEFECE" filter="url(#f1iybt0az3ys7e)" style="stroke:#a80036;stroke-width:1.5"/><text x="577.5" y="22.995" fill="#000" font-family="sans-serif" font-size="14" lengthAdjust="spacingAndGlyphs" textLength="60">Viewport</text><rect width="67" height="30.297" x="692" y="3" fill="#FEFECE" filter="url(#f1iybt0az3ys7e)" style="stroke:#a80036;stroke-width:1.5"/><text x="699" y="22.995" fill="#000" font-family="sans-serif" font-size="14" lengthAdjust="spacingAndGlyphs" textLength="53">Camera</text><rect width="118" height="30.297" x="784.5" y="3" fill="#FEFECE" filter="url(#f1iybt0az3ys7e)" style="stroke:#a80036;stroke-width:1.5"/><text x="791.5" y="22.995" fill="#000" font-family="sans-serif" font-size="14" lengthAdjust="spacingAndGlyphs" textLength="104">SceneManager</text><rect width="94" height="30.297" x="998.5" y="3" fill="#FEFECE" filter="url(#f1iybt0az3ys7e)" style="stroke:#a80036;stroke-width:1.5"/><text x="1005.5" y="22.995" fill="#000" font-family="sans-serif" font-size="14" lengthAdjust="spacingAndGlyphs" textLength="80">Renderable</text><rect width="10" height="488.727" x="182.5" y="69.297" fill="#FFF" filter="url(#f1iybt0az3ys7e)" style="stroke:#a80036;stroke-width:1"/><rect width="10" height="445.594" x="371.5" y="98.43" fill="#FFF" filter="url(#f1iybt0az3ys7e)" style="stroke:#a80036;stroke-width:1"/><rect width="10" height="14.133" x="376.5" y="452.891" fill="#FFF" filter="url(#f1iybt0az3ys7e)" style="stroke:#a80036;stroke-width:1"/><rect width="10" height="402.461" x="498.5" y="127.563" fill="#FFF" filter="url(#f1iybt0az3ys7e)" style="stroke:#a80036;stroke-width:1"/><rect width="10" height="359.328" x="604.5" y="156.695" fill="#FFF" filter="url(#f1iybt0az3ys7e)" style="stroke:#a80036;stroke-width:1"/><rect width="10" height="316.195" x="722.5" y="185.828" fill="#FFF" filter="url(#f1iybt0az3ys7e)" style="stroke:#a80036;stroke-width:1"/><rect width="10" height="273.063" x="840.5" y="214.961" fill="#FFF" filter="url(#f1iybt0az3ys7e)" style="stroke:#a80036;stroke-width:1"/><rect width="10" height="29.133" x="1042.5" y="394.625" fill="#FFF" filter="url(#f1iybt0az3ys7e)" style="stroke:#a80036;stroke-width:1"/><polygon fill="#A80036" points="170.5 65.297 180.5 69.297 170.5 73.297 174.5 69.297" style="stroke:#a80036;stroke-width:1"/><line style="stroke:#a80036;stroke-width:1" x1="54.5" x2="176.5" y1="69.297" y2="69.297"/><text x="61.5" y="64.364" fill="#000" font-family="sans-serif" font-size="13" lengthAdjust="spacingAndGlyphs" textLength="109">renderOneFrame</text><polygon fill="#A80036" points="359.5 94.43 369.5 98.43 359.5 102.43 363.5 98.43" style="stroke:#a80036;stroke-width:1"/><line style="stroke:#a80036;stroke-width:1" x1="192.5" x2="365.5" y1="98.43" y2="98.43"/><text x="199.5" y="93.497" fill="#000" font-family="sans-serif" font-size="13" lengthAdjust="spacingAndGlyphs" textLength="160">_updateAllRenderTargets</text><polygon fill="#A80036" points="486.5 123.563 496.5 127.563 486.5 131.563 490.5 127.563" style="stroke:#a80036;stroke-width:1"/><line style="stroke:#a80036;stroke-width:1" x1="381.5" x2="492.5" y1="127.563" y2="127.563"/><text x="388.5" y="122.629" fill="#000" font-family="sans-serif" font-size="13" lengthAdjust="spacingAndGlyphs" textLength="45">update</text><polygon fill="#A80036" points="592.5 152.695 602.5 156.695 592.5 160.695 596.5 156.695" style="stroke:#a80036;stroke-width:1"/><line style="stroke:#a80036;stroke-width:1" x1="508.5" x2="598.5" y1="156.695" y2="156.695"/><text x="515.5" y="151.762" fill="#000" font-family="sans-serif" font-size="13" lengthAdjust="spacingAndGlyphs" textLength="45">update</text><polygon fill="#A80036" points="710.5 181.828 720.5 185.828 710.5 189.828 714.5 185.828" style="stroke:#a80036;stroke-width:1"/><line style="stroke:#a80036;stroke-width:1" x1="614.5" x2="716.5" y1="185.828" y2="185.828"/><text x="621.5" y="180.895" fill="#000" font-family="sans-serif" font-size="13" lengthAdjust="spacingAndGlyphs" textLength="89">_renderScene</text><polygon fill="#A80036" points="828.5 210.961 838.5 214.961 828.5 218.961 832.5 214.961" style="stroke:#a80036;stroke-width:1"/><line style="stroke:#a80036;stroke-width:1" x1="732.5" x2="834.5" y1="214.961" y2="214.961"/><text x="739.5" y="210.028" fill="#000" font-family="sans-serif" font-size="13" lengthAdjust="spacingAndGlyphs" textLength="89">_renderScene</text><line style="stroke:#a80036;stroke-width:1" x1="850.5" x2="892.5" y1="244.227" y2="244.227"/><line style="stroke:#a80036;stroke-width:1" x1="892.5" x2="892.5" y1="244.227" y2="257.227"/><line style="stroke:#a80036;stroke-width:1" x1="851.5" x2="892.5" y1="257.227" y2="257.227"/><polygon fill="#A80036" points="861.5 253.227 851.5 257.227 861.5 261.227 857.5 257.227" style="stroke:#a80036;stroke-width:1"/><text x="857.5" y="239.161" fill="#000" font-family="sans-serif" font-size="13" lengthAdjust="spacingAndGlyphs" textLength="138">_renderVisibleObjects</text><line style="stroke:#a80036;stroke-width:1" x1="850.5" x2="892.5" y1="286.359" y2="286.359"/><line style="stroke:#a80036;stroke-width:1" x1="892.5" x2="892.5" y1="286.359" y2="299.359"/><line style="stroke:#a80036;stroke-width:1" x1="851.5" x2="892.5" y1="299.359" y2="299.359"/><polygon fill="#A80036" points="861.5 295.359 851.5 299.359 861.5 303.359 857.5 299.359" style="stroke:#a80036;stroke-width:1"/><text x="857.5" y="281.293" fill="#000" font-family="sans-serif" font-size="13" lengthAdjust="spacingAndGlyphs" textLength="178">_renderQueueGroupObjects</text><rect width="800" height="160.664" x="306.5" fill="none" style="stroke:#000;stroke-width:2" y="314.359"/><polygon fill="#EEE" points="306.5 314.359 383.5 314.359 383.5 321.359 373.5 331.359 306.5 331.359 306.5 314.359" style="stroke:#000;stroke-width:2"/><text x="321.5" y="327.426" fill="#000" font-family="sans-serif" font-size="13" font-weight="bold" lengthAdjust="spacingAndGlyphs" textLength="32">loop</text><line style="stroke:#a80036;stroke-width:1" x1="850.5" x2="892.5" y1="352.625" y2="352.625"/><line style="stroke:#a80036;stroke-width:1" x1="892.5" x2="892.5" y1="352.625" y2="365.625"/><line style="stroke:#a80036;stroke-width:1" x1="851.5" x2="892.5" y1="365.625" y2="365.625"/><polygon fill="#A80036" points="861.5 361.625 851.5 365.625 861.5 369.625 857.5 365.625" style="stroke:#a80036;stroke-width:1"/><text x="857.5" y="347.559" fill="#000" font-family="sans-serif" font-size="13" lengthAdjust="spacingAndGlyphs" textLength="103">_issueRenderOp</text><polygon fill="#A80036" points="1030.5 390.625 1040.5 394.625 1030.5 398.625 1034.5 394.625" style="stroke:#a80036;stroke-width:1"/><line style="stroke:#a80036;stroke-width:1" x1="850.5" x2="1036.5" y1="394.625" y2="394.625"/><text x="857.5" y="389.692" fill="#000" font-family="sans-serif" font-size="13" lengthAdjust="spacingAndGlyphs" textLength="129">getRenderOperation</text><polygon fill="#A80036" points="861.5 419.758 851.5 423.758 861.5 427.758 857.5 423.758" style="stroke:#a80036;stroke-width:1"/><line style="stroke:#a80036;stroke-width:1;stroke-dasharray:2,2" x1="855.5" x2="1046.5" y1="423.758" y2="423.758"/><text x="867.5" y="418.825" fill="#000" font-family="sans-serif" font-size="13" lengthAdjust="spacingAndGlyphs" textLength="108">RenderOperation</text><polygon fill="#A80036" points="397.5 448.891 387.5 452.891 397.5 456.891 393.5 452.891" style="stroke:#a80036;stroke-width:1"/><line style="stroke:#a80036;stroke-width:1" x1="391.5" x2="839.5" y1="452.891" y2="452.891"/><text x="403.5" y="447.957" fill="#000" font-family="sans-serif" font-size="13" lengthAdjust="spacingAndGlyphs" textLength="49">_render</text><polygon fill="#A80036" points="828.5 463.023 838.5 467.023 828.5 471.023 832.5 467.023" style="stroke:#a80036;stroke-width:1"/><line style="stroke:#a80036;stroke-width:1;stroke-dasharray:2,2" x1="381.5" x2="834.5" y1="467.023" y2="467.023"/><polygon fill="#A80036" points="743.5 484.023 733.5 488.023 743.5 492.023 739.5 488.023" style="stroke:#a80036;stroke-width:1"/><line style="stroke:#a80036;stroke-width:1;stroke-dasharray:2,2" x1="737.5" x2="844.5" y1="488.023" y2="488.023"/><polygon fill="#A80036" points="625.5 498.023 615.5 502.023 625.5 506.023 621.5 502.023" style="stroke:#a80036;stroke-width:1"/><line style="stroke:#a80036;stroke-width:1;stroke-dasharray:2,2" x1="619.5" x2="726.5" y1="502.023" y2="502.023"/><polygon fill="#A80036" points="519.5 512.023 509.5 516.023 519.5 520.023 515.5 516.023" style="stroke:#a80036;stroke-width:1"/><line style="stroke:#a80036;stroke-width:1;stroke-dasharray:2,2" x1="513.5" x2="608.5" y1="516.023" y2="516.023"/><polygon fill="#A80036" points="392.5 526.023 382.5 530.023 392.5 534.023 388.5 530.023" style="stroke:#a80036;stroke-width:1"/><line style="stroke:#a80036;stroke-width:1;stroke-dasharray:2,2" x1="386.5" x2="502.5" y1="530.023" y2="530.023"/><polygon fill="#A80036" points="203.5 540.023 193.5 544.023 203.5 548.023 199.5 544.023" style="stroke:#a80036;stroke-width:1"/><line style="stroke:#a80036;stroke-width:1;stroke-dasharray:2,2" x1="197.5" x2="375.5" y1="544.023" y2="544.023"/><polygon fill="#A80036" points="65.5 554.023 55.5 558.023 65.5 562.023 61.5 558.023" style="stroke:#a80036;stroke-width:1"/><line style="stroke:#a80036;stroke-width:1;stroke-dasharray:2,2" x1="59.5" x2="186.5" y1="558.023" y2="558.023"/></g></svg>