<svg xmlns="http://www.w3.org/2000/svg" xmlns:xlink="http://www.w3.org/1999/xlink" width="747" height="758" contentScriptType="application/ecmascript" contentStyleType="text/css" preserveAspectRatio="none" style="width:747px;height:758px" version="1.1" viewBox="0 0 747 758" zoomAndPan="magnify"><defs><filter id="f1qjybv0jj1fe0" width="300%" height="300%" x="-1" y="-1"><feGaussianBlur result="blurOut" stdDeviation="2"/><feColorMatrix in="blurOut" result="blurOut2" type="matrix" values="0 0 0 0 0 0 0 0 0 0 0 0 0 0 0 0 0 0 .4 0"/><feOffset dx="4" dy="4" in="blurOut2" result="blurOut3"/><feBlend in="SourceGraphic" in2="blurOut3" mode="normal"/></filter></defs><g><rect width="10" height="110.398" x="334.5" y="230.094" fill="#FFF" filter="url(#f1qjybv0jj1fe0)" style="stroke:#a80036;stroke-width:1"/><rect width="10" height="29.133" x="334.5" y="462.023" fill="#FFF" filter="url(#f1qjybv0jj1fe0)" style="stroke:#a80036;stroke-width:1"/><rect width="10" height="97.398" x="334.5" y="638.82" fill="#FFF" filter="url(#f1qjybv0jj1fe0)" style="stroke:#a80036;stroke-width:1"/><rect width="10" height="95.398" x="511" y="230.094" fill="#FFF" filter="url(#f1qjybv0jj1fe0)" style="stroke:#a80036;stroke-width:1"/><rect width="10" height="158.664" x="511" y="361.625" fill="#FFF" filter="url(#f1qjybv0jj1fe0)" style="stroke:#a80036;stroke-width:1"/><rect width="10" height="100.398" x="668" y="390.758" fill="#FFF" filter="url(#f1qjybv0jj1fe0)" style="stroke:#a80036;stroke-width:1"/><rect width="446.5" height="88.398" x="13" y="84.43" fill="#FFF" filter="url(#f1qjybv0jj1fe0)" style="stroke:#000;stroke-width:2"/><rect width="292" height="88.398" x="433.5" y="245.094" fill="#FFF" filter="url(#f1qjybv0jj1fe0)" style="stroke:#000;stroke-width:2"/><rect width="490" height="46.266" x="235.5" y="564.422" fill="#FFF" filter="url(#f1qjybv0jj1fe0)" style="stroke:#000;stroke-width:2"/><rect width="490" height="75.398" x="235.5" y="653.82" fill="#FFF" filter="url(#f1qjybv0jj1fe0)" style="stroke:#000;stroke-width:2"/><line style="stroke:#a80036;stroke-width:1;stroke-dasharray:5,5" x1="69" x2="69" y1="38.297" y2="746.219"/><line style="stroke:#a80036;stroke-width:1;stroke-dasharray:5,5" x1="339.5" x2="339.5" y1="38.297" y2="746.219"/><line style="stroke:#a80036;stroke-width:1;stroke-dasharray:5,5" x1="515.5" x2="515.5" y1="38.297" y2="746.219"/><line style="stroke:#a80036;stroke-width:1;stroke-dasharray:5,5" x1="672.5" x2="672.5" y1="38.297" y2="746.219"/><rect width="89" height="30.297" x="23" y="3" fill="#FEFECE" filter="url(#f1qjybv0jj1fe0)" style="stroke:#a80036;stroke-width:1.5"/><text x="30" y="22.995" fill="#000" font-family="sans-serif" font-size="14" lengthAdjust="spacingAndGlyphs" textLength="75">Application</text><rect width="184" height="30.297" x="245.5" y="3" fill="#FEFECE" filter="url(#f1qjybv0jj1fe0)" style="stroke:#a80036;stroke-width:1.5"/><text x="252.5" y="22.995" fill="#000" font-family="sans-serif" font-size="14" lengthAdjust="spacingAndGlyphs" textLength="170">ResourceGroupManager</text><rect width="141" height="30.297" x="443.5" y="3" fill="#FEFECE" filter="url(#f1qjybv0jj1fe0)" style="stroke:#a80036;stroke-width:1.5"/><text x="450.5" y="22.995" fill="#000" font-family="sans-serif" font-size="14" lengthAdjust="spacingAndGlyphs" textLength="127">ResourceManager</text><rect width="81" height="30.297" x="630.5" y="3" fill="#FEFECE" filter="url(#f1qjybv0jj1fe0)" style="stroke:#a80036;stroke-width:1.5"/><text x="637.5" y="22.995" fill="#000" font-family="sans-serif" font-size="14" lengthAdjust="spacingAndGlyphs" textLength="67">Resource</text><rect width="10" height="110.398" x="334.5" y="230.094" fill="#FFF" filter="url(#f1qjybv0jj1fe0)" style="stroke:#a80036;stroke-width:1"/><rect width="10" height="29.133" x="334.5" y="462.023" fill="#FFF" filter="url(#f1qjybv0jj1fe0)" style="stroke:#a80036;stroke-width:1"/><rect width="10" height="97.398" x="334.5" y="638.82" fill="#FFF" filter="url(#f1qjybv0jj1fe0)" style="stroke:#a80036;stroke-width:1"/><rect width="10" height="95.398" x="511" y="230.094" fill="#FFF" filter="url(#f1qjybv0jj1fe0)" style="stroke:#a80036;stroke-width:1"/><rect width="10" height="158.664" x="511" y="361.625" fill="#FFF" filter="url(#f1qjybv0jj1fe0)" style="stroke:#a80036;stroke-width:1"/><rect width="10" height="100.398" x="668" y="390.758" fill="#FFF" filter="url(#f1qjybv0jj1fe0)" style="stroke:#a80036;stroke-width:1"/><polygon fill="#A80036" points="327.5 65.43 337.5 69.43 327.5 73.43 331.5 69.43" style="stroke:#a80036;stroke-width:1"/><line style="stroke:#a80036;stroke-width:1" x1="69.5" x2="333.5" y1="69.43" y2="69.43"/><text x="76.5" y="64.364" fill="#000" font-family="sans-serif" font-size="13" lengthAdjust="spacingAndGlyphs" textLength="186">createResourceGroup(group)</text><path fill="#EEE" d="M13,84.4297 L90,84.4297 L90,91.4297 L80,101.4297 L13,101.4297 L13,84.4297" style="stroke:#000;stroke-width:1"/><rect width="446.5" height="88.398" x="13" fill="none" style="stroke:#000;stroke-width:2" y="84.43"/><text x="28" y="97.497" fill="#000" font-family="sans-serif" font-size="13" font-weight="bold" lengthAdjust="spacingAndGlyphs" textLength="32">loop</text><text x="105" y="96.64" fill="#000" font-family="sans-serif" font-size="11" font-weight="bold" lengthAdjust="spacingAndGlyphs" textLength="97">[resources.cfg]</text><polygon fill="#A80036" points="327.5 118.695 337.5 122.695 327.5 126.695 331.5 122.695" style="stroke:#a80036;stroke-width:1"/><line style="stroke:#a80036;stroke-width:1" x1="69.5" x2="333.5" y1="122.695" y2="122.695"/><text x="76.5" y="117.629" fill="#000" font-family="sans-serif" font-size="13" lengthAdjust="spacingAndGlyphs" textLength="246">addResourceLocation(loc, type, group)</text><line style="stroke:#a80036;stroke-width:1" x1="339.5" x2="381.5" y1="151.828" y2="151.828"/><line style="stroke:#a80036;stroke-width:1" x1="381.5" x2="381.5" y1="151.828" y2="164.828"/><line style="stroke:#a80036;stroke-width:1" x1="340.5" x2="381.5" y1="164.828" y2="164.828"/><polygon fill="#A80036" points="350.5 160.828 340.5 164.828 350.5 168.828 346.5 164.828" style="stroke:#a80036;stroke-width:1"/><text x="346.5" y="146.762" fill="#000" font-family="sans-serif" font-size="13" lengthAdjust="spacingAndGlyphs" textLength="101">addToIndex(file)</text><polygon fill="#A80036" points="327.5 196.961 337.5 200.961 327.5 204.961 331.5 200.961" style="stroke:#a80036;stroke-width:1"/><line style="stroke:#a80036;stroke-width:1" x1="69.5" x2="333.5" y1="200.961" y2="200.961"/><text x="76.5" y="195.895" fill="#000" font-family="sans-serif" font-size="13" lengthAdjust="spacingAndGlyphs" textLength="196">initialiseResourceGroup(group)</text><polygon fill="#A80036" points="499 226.094 509 230.094 499 234.094 503 230.094" style="stroke:#a80036;stroke-width:1"/><line style="stroke:#a80036;stroke-width:1" x1="344.5" x2="505" y1="230.094" y2="230.094"/><text x="351.5" y="225.028" fill="#000" font-family="sans-serif" font-size="13" lengthAdjust="spacingAndGlyphs" textLength="101">parseScript(file)</text><path fill="#EEE" d="M433.5,245.0938 L510.5,245.0938 L510.5,252.0938 L500.5,262.0938 L433.5,262.0938 L433.5,245.0938" style="stroke:#000;stroke-width:1"/><rect width="292" height="88.398" x="433.5" fill="none" style="stroke:#000;stroke-width:2" y="245.094"/><text x="448.5" y="258.161" fill="#000" font-family="sans-serif" font-size="13" font-weight="bold" lengthAdjust="spacingAndGlyphs" textLength="32">loop</text><text x="525.5" y="257.304" fill="#000" font-family="sans-serif" font-size="11" font-weight="bold" lengthAdjust="spacingAndGlyphs" textLength="128">[Examples.material]</text><line style="stroke:#a80036;stroke-width:1" x1="521" x2="563" y1="283.359" y2="283.359"/><line style="stroke:#a80036;stroke-width:1" x1="563" x2="563" y1="283.359" y2="296.359"/><line style="stroke:#a80036;stroke-width:1" x1="522" x2="563" y1="296.359" y2="296.359"/><polygon fill="#A80036" points="532 292.359 522 296.359 532 300.359 528 296.359" style="stroke:#a80036;stroke-width:1"/><text x="528" y="278.293" fill="#000" font-family="sans-serif" font-size="13" lengthAdjust="spacingAndGlyphs" textLength="133">create(name, group)</text><polygon fill="#A80036" points="661 321.492 671 325.492 661 329.492 665 325.492" style="stroke:#a80036;stroke-width:1"/><line style="stroke:#a80036;stroke-width:1" x1="516" x2="667" y1="325.492" y2="325.492"/><text x="523" y="320.426" fill="#000" font-family="sans-serif" font-size="13" lengthAdjust="spacingAndGlyphs" textLength="77">&lt;&lt; new &gt;&gt;</text><polygon fill="#A80036" points="499 357.625 509 361.625 499 365.625 503 361.625" style="stroke:#a80036;stroke-width:1"/><line style="stroke:#a80036;stroke-width:1" x1="69.5" x2="505" y1="361.625" y2="361.625"/><text x="76.5" y="356.559" fill="#000" font-family="sans-serif" font-size="13" lengthAdjust="spacingAndGlyphs" textLength="119">load(name, group)</text><polygon fill="#A80036" points="656 386.758 666 390.758 656 394.758 660 390.758" style="stroke:#a80036;stroke-width:1"/><line style="stroke:#a80036;stroke-width:1" x1="521" x2="662" y1="390.758" y2="390.758"/><text x="528" y="385.692" fill="#000" font-family="sans-serif" font-size="13" lengthAdjust="spacingAndGlyphs" textLength="77">&lt;&lt; new &gt;&gt;</text><line style="stroke:#a80036;stroke-width:1" x1="678" x2="720" y1="419.891" y2="419.891"/><line style="stroke:#a80036;stroke-width:1" x1="720" x2="720" y1="419.891" y2="432.891"/><line style="stroke:#a80036;stroke-width:1" x1="679" x2="720" y1="432.891" y2="432.891"/><polygon fill="#A80036" points="689 428.891 679 432.891 689 436.891 685 432.891" style="stroke:#a80036;stroke-width:1"/><text x="685" y="414.825" fill="#000" font-family="sans-serif" font-size="13" lengthAdjust="spacingAndGlyphs" textLength="50">prepare</text><polygon fill="#A80036" points="355.5 458.023 345.5 462.023 355.5 466.023 351.5 462.023" style="stroke:#a80036;stroke-width:1"/><line style="stroke:#a80036;stroke-width:1" x1="349.5" x2="667" y1="462.023" y2="462.023"/><text x="361.5" y="456.957" fill="#000" font-family="sans-serif" font-size="13" lengthAdjust="spacingAndGlyphs" textLength="183">openResource(name, group)</text><polygon fill="#A80036" points="661 487.156 671 491.156 661 495.156 665 491.156" style="stroke:#a80036;stroke-width:1"/><line style="stroke:#a80036;stroke-width:1;stroke-dasharray:2,2" x1="339.5" x2="667" y1="491.156" y2="491.156"/><text x="346.5" y="486.09" fill="#000" font-family="sans-serif" font-size="13" lengthAdjust="spacingAndGlyphs" textLength="97">DataStreamPtr</text><polygon fill="#A80036" points="80.5 516.289 70.5 520.289 80.5 524.289 76.5 520.289" style="stroke:#a80036;stroke-width:1"/><line style="stroke:#a80036;stroke-width:1;stroke-dasharray:2,2" x1="74.5" x2="515" y1="520.289" y2="520.289"/><text x="86.5" y="515.223" fill="#000" font-family="sans-serif" font-size="13" lengthAdjust="spacingAndGlyphs" textLength="77">ResourcePtr</text><polygon fill="#A80036" points="327.5 545.422 337.5 549.422 327.5 553.422 331.5 549.422" style="stroke:#a80036;stroke-width:1"/><line style="stroke:#a80036;stroke-width:1" x1="69.5" x2="333.5" y1="549.422" y2="549.422"/><text x="76.5" y="544.356" fill="#000" font-family="sans-serif" font-size="13" lengthAdjust="spacingAndGlyphs" textLength="172">loadResourceGroup(group)</text><path fill="#EEE" d="M235.5,564.4219 L312.5,564.4219 L312.5,571.4219 L302.5,581.4219 L235.5,581.4219 L235.5,564.4219" style="stroke:#000;stroke-width:1"/><rect width="490" height="46.266" x="235.5" fill="none" style="stroke:#000;stroke-width:2" y="564.422"/><text x="250.5" y="577.489" fill="#000" font-family="sans-serif" font-size="13" font-weight="bold" lengthAdjust="spacingAndGlyphs" textLength="32">loop</text><text x="327.5" y="576.632" fill="#000" font-family="sans-serif" font-size="11" font-weight="bold" lengthAdjust="spacingAndGlyphs" textLength="47">[group]</text><polygon fill="#A80036" points="661 598.688 671 602.688 661 606.688 665 602.688" style="stroke:#a80036;stroke-width:1"/><line style="stroke:#a80036;stroke-width:1" x1="339.5" x2="667" y1="602.688" y2="602.688"/><text x="346.5" y="597.622" fill="#000" font-family="sans-serif" font-size="13" lengthAdjust="spacingAndGlyphs" textLength="27">load</text><polygon fill="#A80036" points="322.5 634.82 332.5 638.82 322.5 642.82 326.5 638.82" style="stroke:#a80036;stroke-width:1"/><line style="stroke:#a80036;stroke-width:1" x1="69.5" x2="328.5" y1="638.82" y2="638.82"/><text x="76.5" y="633.754" fill="#000" font-family="sans-serif" font-size="13" lengthAdjust="spacingAndGlyphs" textLength="176">clearResourceGroup(group)</text><path fill="#EEE" d="M235.5,653.8203 L312.5,653.8203 L312.5,660.8203 L302.5,670.8203 L235.5,670.8203 L235.5,653.8203" style="stroke:#000;stroke-width:1"/><rect width="490" height="75.398" x="235.5" fill="none" style="stroke:#000;stroke-width:2" y="653.82"/><text x="250.5" y="666.887" fill="#000" font-family="sans-serif" font-size="13" font-weight="bold" lengthAdjust="spacingAndGlyphs" textLength="32">loop</text><text x="327.5" y="666.031" fill="#000" font-family="sans-serif" font-size="11" font-weight="bold" lengthAdjust="spacingAndGlyphs" textLength="47">[group]</text><polygon fill="#A80036" points="504 688.086 514 692.086 504 696.086 508 692.086" style="stroke:#a80036;stroke-width:1"/><line style="stroke:#a80036;stroke-width:1" x1="344.5" x2="510" y1="692.086" y2="692.086"/><text x="351.5" y="687.02" fill="#000" font-family="sans-serif" font-size="13" lengthAdjust="spacingAndGlyphs" textLength="96">remove(name)</text><polygon fill="#A80036" points="661 717.219 671 721.219 661 725.219 665 721.219" style="stroke:#a80036;stroke-width:1"/><line style="stroke:#a80036;stroke-width:1" x1="516" x2="667" y1="721.219" y2="721.219"/><text x="523" y="716.153" fill="#000" font-family="sans-serif" font-size="13" lengthAdjust="spacingAndGlyphs" textLength="92">&lt;&lt; delete &gt;&gt;</text></g></svg>