<svg xmlns="http://www.w3.org/2000/svg" xmlns:xlink="http://www.w3.org/1999/xlink" width="1164" height="550" contentScriptType="application/ecmascript" contentStyleType="text/css" preserveAspectRatio="none" style="width:1164px;height:550px" version="1.1" viewBox="0 0 1164 550" zoomAndPan="magnify"><defs><filter id="foqmuxm3x65xi" width="300%" height="300%" x="-1" y="-1"><feGaussianBlur result="blurOut" stdDeviation="2"/><feColorMatrix in="blurOut" result="blurOut2" type="matrix" values="0 0 0 0 0 0 0 0 0 0 0 0 0 0 0 0 0 0 .4 0"/><feOffset dx="4" dy="4" in="blurOut2" result="blurOut3"/><feBlend in="SourceGraphic" in2="blurOut3" mode="normal"/></filter></defs><g><polygon fill="#FFF" points="207 6 363 6 370 28.297 698 28.297 698 197 207 197 207 6" filter="url(#foqmuxm3x65xi)" style="stroke:#000;stroke-width:1.5"/><line style="stroke:#000;stroke-width:1.5" x1="207" x2="370" y1="28.297" y2="28.297"/><text x="211" y="20.995" fill="#000" font-family="sans-serif" font-size="14" font-weight="bold" lengthAdjust="spacingAndGlyphs" textLength="150">SceneManagement</text><polygon fill="#DDD" points="730 106 784 106 791 128.297 930 128.297 930 189 730 189 730 106" filter="url(#foqmuxm3x65xi)" style="stroke:#000;stroke-width:1.5"/><line style="stroke:#000;stroke-width:1.5" x1="730" x2="791" y1="128.297" y2="128.297"/><text x="734" y="120.995" fill="#000" font-family="sans-serif" font-size="14" font-weight="bold" lengthAdjust="spacingAndGlyphs" textLength="48">Plugin</text><polygon fill="#FFF" points="16 237 203 237 210 259.297 558 259.297 558 428 16 428 16 237" filter="url(#foqmuxm3x65xi)" style="stroke:#000;stroke-width:1.5"/><line style="stroke:#000;stroke-width:1.5" x1="16" x2="210" y1="259.297" y2="259.297"/><text x="20" y="251.995" fill="#000" font-family="sans-serif" font-size="14" font-weight="bold" lengthAdjust="spacingAndGlyphs" textLength="181">Resource Management</text><polygon fill="#DDD" points="18 460 72 460 79 482.297 188 482.297 188 543 18 543 18 460" filter="url(#foqmuxm3x65xi)" style="stroke:#000;stroke-width:1.5"/><line style="stroke:#000;stroke-width:1.5" x1="18" x2="79" y1="482.297" y2="482.297"/><text x="22" y="474.995" fill="#000" font-family="sans-serif" font-size="14" font-weight="bold" lengthAdjust="spacingAndGlyphs" textLength="48">Plugin</text><polygon fill="#FFF" points="598 237 685 237 692 259.297 1147 259.297 1147 428 598 428 598 237" filter="url(#foqmuxm3x65xi)" style="stroke:#000;stroke-width:1.5"/><line style="stroke:#000;stroke-width:1.5" x1="598" x2="692" y1="259.297" y2="259.297"/><text x="602" y="251.995" fill="#000" font-family="sans-serif" font-size="14" font-weight="bold" lengthAdjust="spacingAndGlyphs" textLength="81">Rendering</text><polygon fill="#DDD" points="350 460 404 460 411 482.297 649 482.297 649 543 350 543 350 460" filter="url(#foqmuxm3x65xi)" style="stroke:#000;stroke-width:1.5"/><line style="stroke:#000;stroke-width:1.5" x1="350" x2="411" y1="482.297" y2="482.297"/><text x="354" y="474.995" fill="#000" font-family="sans-serif" font-size="14" font-weight="bold" lengthAdjust="spacingAndGlyphs" textLength="48">Plugin</text><rect id="MovableObject" width="123" height="32" x="250.5" y="49" fill="#FEFECE" filter="url(#foqmuxm3x65xi)" style="stroke:#a80036;stroke-width:1.5"/><ellipse cx="265.5" cy="65" fill="#ADD1B2" rx="11" ry="11" style="stroke:#a80036;stroke-width:1"/><path d="M268.4688,70.6406 Q267.8906,70.9375 267.25,71.0781 Q266.6094,71.2344 265.9063,71.2344 Q263.4063,71.2344 262.0781,69.5938 Q260.7656,67.9375 260.7656,64.8125 Q260.7656,61.6875 262.0781,60.0313 Q263.4063,58.375 265.9063,58.375 Q266.6094,58.375 267.25,58.5313 Q267.9063,58.6875 268.4688,58.9844 L268.4688,61.7031 Q267.8438,61.125 267.25,60.8594 Q266.6563,60.5781 266.0313,60.5781 Q264.6875,60.5781 264,61.6563 Q263.3125,62.7188 263.3125,64.8125 Q263.3125,66.9063 264,67.9844 Q264.6875,69.0469 266.0313,69.0469 Q266.6563,69.0469 267.25,68.7813 Q267.8438,68.5 268.4688,67.9219 L268.4688,70.6406 Z"/><text x="279.5" y="69.154" fill="#000" font-family="sans-serif" font-size="12" lengthAdjust="spacingAndGlyphs" textLength="91">MovableObject</text><rect id="Entity" width="67" height="32" x="347.5" y="141" fill="#FEFECE" filter="url(#foqmuxm3x65xi)" style="stroke:#a80036;stroke-width:1.5"/><ellipse cx="362.5" cy="157" fill="#ADD1B2" rx="11" ry="11" style="stroke:#a80036;stroke-width:1"/><path d="M365.4688,162.6406 Q364.8906,162.9375 364.25,163.0781 Q363.6094,163.2344 362.9063,163.2344 Q360.4063,163.2344 359.0781,161.5938 Q357.7656,159.9375 357.7656,156.8125 Q357.7656,153.6875 359.0781,152.0313 Q360.4063,150.375 362.9063,150.375 Q363.6094,150.375 364.25,150.5313 Q364.9063,150.6875 365.4688,150.9844 L365.4688,153.7031 Q364.8438,153.125 364.25,152.8594 Q363.6563,152.5781 363.0313,152.5781 Q361.6875,152.5781 361,153.6563 Q360.3125,154.7188 360.3125,156.8125 Q360.3125,158.9063 361,159.9844 Q361.6875,161.0469 363.0313,161.0469 Q363.6563,161.0469 364.25,160.7813 Q364.8438,160.5 365.4688,159.9219 L365.4688,162.6406 Z"/><text x="376.5" y="161.154" fill="#000" font-family="sans-serif" font-size="12" lengthAdjust="spacingAndGlyphs" textLength="35">Entity</text><rect id="Camera" width="80" height="32" x="450" y="141" fill="#FEFECE" filter="url(#foqmuxm3x65xi)" style="stroke:#a80036;stroke-width:1.5"/><ellipse cx="465" cy="157" fill="#ADD1B2" rx="11" ry="11" style="stroke:#a80036;stroke-width:1"/><path d="M467.9688,162.6406 Q467.3906,162.9375 466.75,163.0781 Q466.1094,163.2344 465.4063,163.2344 Q462.9063,163.2344 461.5781,161.5938 Q460.2656,159.9375 460.2656,156.8125 Q460.2656,153.6875 461.5781,152.0313 Q462.9063,150.375 465.4063,150.375 Q466.1094,150.375 466.75,150.5313 Q467.4063,150.6875 467.9688,150.9844 L467.9688,153.7031 Q467.3438,153.125 466.75,152.8594 Q466.1563,152.5781 465.5313,152.5781 Q464.1875,152.5781 463.5,153.6563 Q462.8125,154.7188 462.8125,156.8125 Q462.8125,158.9063 463.5,159.9844 Q464.1875,161.0469 465.5313,161.0469 Q466.1563,161.0469 466.75,160.7813 Q467.3438,160.5 467.9688,159.9219 L467.9688,162.6406 Z"/><text x="479" y="161.154" fill="#000" font-family="sans-serif" font-size="12" lengthAdjust="spacingAndGlyphs" textLength="48">Camera</text><rect id="Light" width="62" height="32" x="250" y="141" fill="#FEFECE" filter="url(#foqmuxm3x65xi)" style="stroke:#a80036;stroke-width:1.5"/><ellipse cx="265" cy="157" fill="#ADD1B2" rx="11" ry="11" style="stroke:#a80036;stroke-width:1"/><path d="M267.9688,162.6406 Q267.3906,162.9375 266.75,163.0781 Q266.1094,163.2344 265.4063,163.2344 Q262.9063,163.2344 261.5781,161.5938 Q260.2656,159.9375 260.2656,156.8125 Q260.2656,153.6875 261.5781,152.0313 Q262.9063,150.375 265.4063,150.375 Q266.1094,150.375 266.75,150.5313 Q267.4063,150.6875 267.9688,150.9844 L267.9688,153.7031 Q267.3438,153.125 266.75,152.8594 Q266.1563,152.5781 265.5313,152.5781 Q264.1875,152.5781 263.5,153.6563 Q262.8125,154.7188 262.8125,156.8125 Q262.8125,158.9063 263.5,159.9844 Q264.1875,161.0469 265.5313,161.0469 Q266.1563,161.0469 266.75,160.7813 Q267.3438,160.5 267.9688,159.9219 L267.9688,162.6406 Z"/><text x="279" y="161.154" fill="#000" font-family="sans-serif" font-size="12" lengthAdjust="spacingAndGlyphs" textLength="30">Light</text><rect id="SceneNode" width="104" height="32" x="409" y="49" fill="#FEFECE" codeLine="9" filter="url(#foqmuxm3x65xi)" style="stroke:#a80036;stroke-width:1.5"/><ellipse cx="424" cy="65" fill="#ADD1B2" rx="11" ry="11" style="stroke:#a80036;stroke-width:1"/><path d="M426.9688,70.6406 Q426.3906,70.9375 425.75,71.0781 Q425.1094,71.2344 424.4063,71.2344 Q421.9063,71.2344 420.5781,69.5938 Q419.2656,67.9375 419.2656,64.8125 Q419.2656,61.6875 420.5781,60.0313 Q421.9063,58.375 424.4063,58.375 Q425.1094,58.375 425.75,58.5313 Q426.4063,58.6875 426.9688,58.9844 L426.9688,61.7031 Q426.3438,61.125 425.75,60.8594 Q425.1563,60.5781 424.5313,60.5781 Q423.1875,60.5781 422.5,61.6563 Q421.8125,62.7188 421.8125,64.8125 Q421.8125,66.9063 422.5,67.9844 Q423.1875,69.0469 424.5313,69.0469 Q425.1563,69.0469 425.75,68.7813 Q426.3438,68.5 426.9688,67.9219 L426.9688,70.6406 Z"/><text x="438" y="69.154" fill="#000" font-family="sans-serif" font-size="12" lengthAdjust="spacingAndGlyphs" textLength="72">SceneNode</text><rect id="SceneManager" width="126" height="32" x="548" y="49" fill="#FEFECE" codeLine="10" filter="url(#foqmuxm3x65xi)" style="stroke:#a80036;stroke-width:1.5"/><ellipse cx="563" cy="65" fill="#ADD1B2" rx="11" ry="11" style="stroke:#a80036;stroke-width:1"/><path d="M565.9688,70.6406 Q565.3906,70.9375 564.75,71.0781 Q564.1094,71.2344 563.4063,71.2344 Q560.9063,71.2344 559.5781,69.5938 Q558.2656,67.9375 558.2656,64.8125 Q558.2656,61.6875 559.5781,60.0313 Q560.9063,58.375 563.4063,58.375 Q564.1094,58.375 564.75,58.5313 Q565.4063,58.6875 565.9688,58.9844 L565.9688,61.7031 Q565.3438,61.125 564.75,60.8594 Q564.1563,60.5781 563.5313,60.5781 Q562.1875,60.5781 561.5,61.6563 Q560.8125,62.7188 560.8125,64.8125 Q560.8125,66.9063 561.5,67.9844 Q562.1875,69.0469 563.5313,69.0469 Q564.1563,69.0469 564.75,68.7813 Q565.3438,68.5 565.9688,67.9219 L565.9688,70.6406 Z"/><text x="577" y="69.154" fill="#000" font-family="sans-serif" font-size="12" lengthAdjust="spacingAndGlyphs" textLength="94">SceneManager</text><rect id="OctreeSceneManager" width="168" height="32" x="746" y="141" fill="#FEFECE" filter="url(#foqmuxm3x65xi)" style="stroke:#a80036;stroke-width:1.5"/><ellipse cx="761" cy="157" fill="#ADD1B2" rx="11" ry="11" style="stroke:#a80036;stroke-width:1"/><path d="M763.9688,162.6406 Q763.3906,162.9375 762.75,163.0781 Q762.1094,163.2344 761.4063,163.2344 Q758.9063,163.2344 757.5781,161.5938 Q756.2656,159.9375 756.2656,156.8125 Q756.2656,153.6875 757.5781,152.0313 Q758.9063,150.375 761.4063,150.375 Q762.1094,150.375 762.75,150.5313 Q763.4063,150.6875 763.9688,150.9844 L763.9688,153.7031 Q763.3438,153.125 762.75,152.8594 Q762.1563,152.5781 761.5313,152.5781 Q760.1875,152.5781 759.5,153.6563 Q758.8125,154.7188 758.8125,156.8125 Q758.8125,158.9063 759.5,159.9844 Q760.1875,161.0469 761.5313,161.0469 Q762.1563,161.0469 762.75,160.7813 Q763.3438,160.5 763.9688,159.9219 L763.9688,162.6406 Z"/><text x="775" y="161.154" fill="#000" font-family="sans-serif" font-size="12" lengthAdjust="spacingAndGlyphs" textLength="136">OctreeSceneManager</text><rect id="ResourceGroupManager" width="184" height="32" x="59" y="280" fill="#FEFECE" codeLine="16" filter="url(#foqmuxm3x65xi)" style="stroke:#a80036;stroke-width:1.5"/><ellipse cx="74" cy="296" fill="#ADD1B2" rx="11" ry="11" style="stroke:#a80036;stroke-width:1"/><path d="M76.9688,301.6406 Q76.3906,301.9375 75.75,302.0781 Q75.1094,302.2344 74.4063,302.2344 Q71.9063,302.2344 70.5781,300.5938 Q69.2656,298.9375 69.2656,295.8125 Q69.2656,292.6875 70.5781,291.0313 Q71.9063,289.375 74.4063,289.375 Q75.1094,289.375 75.75,289.5313 Q76.4063,289.6875 76.9688,289.9844 L76.9688,292.7031 Q76.3438,292.125 75.75,291.8594 Q75.1563,291.5781 74.5313,291.5781 Q73.1875,291.5781 72.5,292.6563 Q71.8125,293.7188 71.8125,295.8125 Q71.8125,297.9063 72.5,298.9844 Q73.1875,300.0469 74.5313,300.0469 Q75.1563,300.0469 75.75,299.7813 Q76.3438,299.5 76.9688,298.9219 L76.9688,301.6406 Z"/><text x="88" y="300.154" fill="#000" font-family="sans-serif" font-size="12" lengthAdjust="spacingAndGlyphs" textLength="152">ResourceGroupManager</text><rect id="ResourceManager" width="146" height="32" x="278" y="280" fill="#FEFECE" codeLine="17" filter="url(#foqmuxm3x65xi)" style="stroke:#a80036;stroke-width:1.5"/><ellipse cx="293" cy="296" fill="#ADD1B2" rx="11" ry="11" style="stroke:#a80036;stroke-width:1"/><path d="M295.9688,301.6406 Q295.3906,301.9375 294.75,302.0781 Q294.1094,302.2344 293.4063,302.2344 Q290.9063,302.2344 289.5781,300.5938 Q288.2656,298.9375 288.2656,295.8125 Q288.2656,292.6875 289.5781,291.0313 Q290.9063,289.375 293.4063,289.375 Q294.1094,289.375 294.75,289.5313 Q295.4063,289.6875 295.9688,289.9844 L295.9688,292.7031 Q295.3438,292.125 294.75,291.8594 Q294.1563,291.5781 293.5313,291.5781 Q292.1875,291.5781 291.5,292.6563 Q290.8125,293.7188 290.8125,295.8125 Q290.8125,297.9063 291.5,298.9844 Q292.1875,300.0469 293.5313,300.0469 Q294.1563,300.0469 294.75,299.7813 Q295.3438,299.5 295.9688,298.9219 L295.9688,301.6406 Z"/><text x="307" y="300.154" fill="#000" font-family="sans-serif" font-size="12" lengthAdjust="spacingAndGlyphs" textLength="114">ResourceManager</text><rect id="ImageCodec" width="109" height="32" x="48.5" y="372" fill="#FEFECE" codeLine="18" filter="url(#foqmuxm3x65xi)" style="stroke:#a80036;stroke-width:1.5"/><ellipse cx="63.5" cy="388" fill="#ADD1B2" rx="11" ry="11" style="stroke:#a80036;stroke-width:1"/><path d="M66.4688,393.6406 Q65.8906,393.9375 65.25,394.0781 Q64.6094,394.2344 63.9063,394.2344 Q61.4063,394.2344 60.0781,392.5938 Q58.7656,390.9375 58.7656,387.8125 Q58.7656,384.6875 60.0781,383.0313 Q61.4063,381.375 63.9063,381.375 Q64.6094,381.375 65.25,381.5313 Q65.9063,381.6875 66.4688,381.9844 L66.4688,384.7031 Q65.8438,384.125 65.25,383.8594 Q64.6563,383.5781 64.0313,383.5781 Q62.6875,383.5781 62,384.6563 Q61.3125,385.7188 61.3125,387.8125 Q61.3125,389.9063 62,390.9844 Q62.6875,392.0469 64.0313,392.0469 Q64.6563,392.0469 65.25,391.7813 Q65.8438,391.5 66.4688,390.9219 L66.4688,393.6406 Z"/><text x="77.5" y="392.154" fill="#000" font-family="sans-serif" font-size="12" lengthAdjust="spacingAndGlyphs" textLength="77">ImageCodec</text><rect id="Mesh" width="65" height="32" x="459.5" y="280" fill="#FEFECE" codeLine="19" filter="url(#foqmuxm3x65xi)" style="stroke:#a80036;stroke-width:1.5"/><ellipse cx="474.5" cy="296" fill="#ADD1B2" rx="11" ry="11" style="stroke:#a80036;stroke-width:1"/><path d="M477.4688,301.6406 Q476.8906,301.9375 476.25,302.0781 Q475.6094,302.2344 474.9063,302.2344 Q472.4063,302.2344 471.0781,300.5938 Q469.7656,298.9375 469.7656,295.8125 Q469.7656,292.6875 471.0781,291.0313 Q472.4063,289.375 474.9063,289.375 Q475.6094,289.375 476.25,289.5313 Q476.9063,289.6875 477.4688,289.9844 L477.4688,292.7031 Q476.8438,292.125 476.25,291.8594 Q475.6563,291.5781 475.0313,291.5781 Q473.6875,291.5781 473,292.6563 Q472.3125,293.7188 472.3125,295.8125 Q472.3125,297.9063 473,298.9844 Q473.6875,300.0469 475.0313,300.0469 Q475.6563,300.0469 476.25,299.7813 Q476.8438,299.5 477.4688,298.9219 L477.4688,301.6406 Z"/><text x="488.5" y="300.154" fill="#000" font-family="sans-serif" font-size="12" lengthAdjust="spacingAndGlyphs" textLength="33">Mesh</text><rect id="Material" width="82" height="32" x="307" y="372" fill="#FEFECE" codeLine="20" filter="url(#foqmuxm3x65xi)" style="stroke:#a80036;stroke-width:1.5"/><ellipse cx="322" cy="388" fill="#ADD1B2" rx="11" ry="11" style="stroke:#a80036;stroke-width:1"/><path d="M324.9688,393.6406 Q324.3906,393.9375 323.75,394.0781 Q323.1094,394.2344 322.4063,394.2344 Q319.9063,394.2344 318.5781,392.5938 Q317.2656,390.9375 317.2656,387.8125 Q317.2656,384.6875 318.5781,383.0313 Q319.9063,381.375 322.4063,381.375 Q323.1094,381.375 323.75,381.5313 Q324.4063,381.6875 324.9688,381.9844 L324.9688,384.7031 Q324.3438,384.125 323.75,383.8594 Q323.1563,383.5781 322.5313,383.5781 Q321.1875,383.5781 320.5,384.6563 Q319.8125,385.7188 319.8125,387.8125 Q319.8125,389.9063 320.5,390.9844 Q321.1875,392.0469 322.5313,392.0469 Q323.1563,392.0469 323.75,391.7813 Q324.3438,391.5 324.9688,390.9219 L324.9688,393.6406 Z"/><text x="336" y="392.154" fill="#000" font-family="sans-serif" font-size="12" lengthAdjust="spacingAndGlyphs" textLength="50">Material</text><rect id="GpuProgram" width="110" height="32" x="424" y="372" fill="#FEFECE" codeLine="21" filter="url(#foqmuxm3x65xi)" style="stroke:#a80036;stroke-width:1.5"/><ellipse cx="439" cy="388" fill="#ADD1B2" rx="11" ry="11" style="stroke:#a80036;stroke-width:1"/><path d="M441.9688,393.6406 Q441.3906,393.9375 440.75,394.0781 Q440.1094,394.2344 439.4063,394.2344 Q436.9063,394.2344 435.5781,392.5938 Q434.2656,390.9375 434.2656,387.8125 Q434.2656,384.6875 435.5781,383.0313 Q436.9063,381.375 439.4063,381.375 Q440.1094,381.375 440.75,381.5313 Q441.4063,381.6875 441.9688,381.9844 L441.9688,384.7031 Q441.3438,384.125 440.75,383.8594 Q440.1563,383.5781 439.5313,383.5781 Q438.1875,383.5781 437.5,384.6563 Q436.8125,385.7188 436.8125,387.8125 Q436.8125,389.9063 437.5,390.9844 Q438.1875,392.0469 439.5313,392.0469 Q440.1563,392.0469 440.75,391.7813 Q441.3438,391.5 441.9688,390.9219 L441.9688,393.6406 Z"/><text x="453" y="392.154" fill="#000" font-family="sans-serif" font-size="12" lengthAdjust="spacingAndGlyphs" textLength="78">GpuProgram</text><rect id="Texture" width="79" height="32" x="192.5" y="372" fill="#FEFECE" codeLine="22" filter="url(#foqmuxm3x65xi)" style="stroke:#a80036;stroke-width:1.5"/><ellipse cx="207.5" cy="388" fill="#ADD1B2" rx="11" ry="11" style="stroke:#a80036;stroke-width:1"/><path d="M210.4688,393.6406 Q209.8906,393.9375 209.25,394.0781 Q208.6094,394.2344 207.9063,394.2344 Q205.4063,394.2344 204.0781,392.5938 Q202.7656,390.9375 202.7656,387.8125 Q202.7656,384.6875 204.0781,383.0313 Q205.4063,381.375 207.9063,381.375 Q208.6094,381.375 209.25,381.5313 Q209.9063,381.6875 210.4688,381.9844 L210.4688,384.7031 Q209.8438,384.125 209.25,383.8594 Q208.6563,383.5781 208.0313,383.5781 Q206.6875,383.5781 206,384.6563 Q205.3125,385.7188 205.3125,387.8125 Q205.3125,389.9063 206,390.9844 Q206.6875,392.0469 208.0313,392.0469 Q208.6563,392.0469 209.25,391.7813 Q209.8438,391.5 210.4688,390.9219 L210.4688,393.6406 Z"/><text x="221.5" y="392.154" fill="#000" font-family="sans-serif" font-size="12" lengthAdjust="spacingAndGlyphs" textLength="47">Texture</text><rect id="FreeImageCodec" width="137" height="32" x="34.5" y="495" fill="#FEFECE" filter="url(#foqmuxm3x65xi)" style="stroke:#a80036;stroke-width:1.5"/><ellipse cx="49.5" cy="511" fill="#ADD1B2" rx="11" ry="11" style="stroke:#a80036;stroke-width:1"/><path d="M52.4688,516.6406 Q51.8906,516.9375 51.25,517.0781 Q50.6094,517.2344 49.9063,517.2344 Q47.4063,517.2344 46.0781,515.5938 Q44.7656,513.9375 44.7656,510.8125 Q44.7656,507.6875 46.0781,506.0313 Q47.4063,504.375 49.9063,504.375 Q50.6094,504.375 51.25,504.5313 Q51.9063,504.6875 52.4688,504.9844 L52.4688,507.7031 Q51.8438,507.125 51.25,506.8594 Q50.6563,506.5781 50.0313,506.5781 Q48.6875,506.5781 48,507.6563 Q47.3125,508.7188 47.3125,510.8125 Q47.3125,512.9063 48,513.9844 Q48.6875,515.0469 50.0313,515.0469 Q50.6563,515.0469 51.25,514.7813 Q51.8438,514.5 52.4688,513.9219 L52.4688,516.6406 Z"/><text x="63.5" y="515.154" fill="#000" font-family="sans-serif" font-size="12" lengthAdjust="spacingAndGlyphs" textLength="105">FreeImageCodec</text><rect id="RenderWindow" width="124" height="32" x="999" y="280" fill="#FEFECE" codeLine="28" filter="url(#foqmuxm3x65xi)" style="stroke:#a80036;stroke-width:1.5"/><ellipse cx="1014" cy="296" fill="#ADD1B2" rx="11" ry="11" style="stroke:#a80036;stroke-width:1"/><path d="M1016.9688,301.6406 Q1016.3906,301.9375 1015.75,302.0781 Q1015.1094,302.2344 1014.4063,302.2344 Q1011.9063,302.2344 1010.5781,300.5938 Q1009.2656,298.9375 1009.2656,295.8125 Q1009.2656,292.6875 1010.5781,291.0313 Q1011.9063,289.375 1014.4063,289.375 Q1015.1094,289.375 1015.75,289.5313 Q1016.4063,289.6875 1016.9688,289.9844 L1016.9688,292.7031 Q1016.3438,292.125 1015.75,291.8594 Q1015.1563,291.5781 1014.5313,291.5781 Q1013.1875,291.5781 1012.5,292.6563 Q1011.8125,293.7188 1011.8125,295.8125 Q1011.8125,297.9063 1012.5,298.9844 Q1013.1875,300.0469 1014.5313,300.0469 Q1015.1563,300.0469 1015.75,299.7813 Q1016.3438,299.5 1016.9688,298.9219 L1016.9688,301.6406 Z"/><text x="1028" y="300.154" fill="#000" font-family="sans-serif" font-size="12" lengthAdjust="spacingAndGlyphs" textLength="92">RenderWindow</text><rect id="Renderable" width="104" height="32" x="860" y="280" fill="#FEFECE" codeLine="29" filter="url(#foqmuxm3x65xi)" style="stroke:#a80036;stroke-width:1.5"/><ellipse cx="875" cy="296" fill="#ADD1B2" rx="11" ry="11" style="stroke:#a80036;stroke-width:1"/><path d="M877.9688,301.6406 Q877.3906,301.9375 876.75,302.0781 Q876.1094,302.2344 875.4063,302.2344 Q872.9063,302.2344 871.5781,300.5938 Q870.2656,298.9375 870.2656,295.8125 Q870.2656,292.6875 871.5781,291.0313 Q872.9063,289.375 875.4063,289.375 Q876.1094,289.375 876.75,289.5313 Q877.4063,289.6875 877.9688,289.9844 L877.9688,292.7031 Q877.3438,292.125 876.75,291.8594 Q876.1563,291.5781 875.5313,291.5781 Q874.1875,291.5781 873.5,292.6563 Q872.8125,293.7188 872.8125,295.8125 Q872.8125,297.9063 873.5,298.9844 Q874.1875,300.0469 875.5313,300.0469 Q876.1563,300.0469 876.75,299.7813 Q877.3438,299.5 877.9688,298.9219 L877.9688,301.6406 Z"/><text x="889" y="300.154" fill="#000" font-family="sans-serif" font-size="12" lengthAdjust="spacingAndGlyphs" textLength="72">Renderable</text><rect id="RenderSystem" width="122" height="32" x="656" y="372" fill="#FEFECE" codeLine="30" filter="url(#foqmuxm3x65xi)" style="stroke:#a80036;stroke-width:1.5"/><ellipse cx="671" cy="388" fill="#ADD1B2" rx="11" ry="11" style="stroke:#a80036;stroke-width:1"/><path d="M673.9688,393.6406 Q673.3906,393.9375 672.75,394.0781 Q672.1094,394.2344 671.4063,394.2344 Q668.9063,394.2344 667.5781,392.5938 Q666.2656,390.9375 666.2656,387.8125 Q666.2656,384.6875 667.5781,383.0313 Q668.9063,381.375 671.4063,381.375 Q672.1094,381.375 672.75,381.5313 Q673.4063,381.6875 673.9688,381.9844 L673.9688,384.7031 Q673.3438,384.125 672.75,383.8594 Q672.1563,383.5781 671.5313,383.5781 Q670.1875,383.5781 669.5,384.6563 Q668.8125,385.7188 668.8125,387.8125 Q668.8125,389.9063 669.5,390.9844 Q670.1875,392.0469 671.5313,392.0469 Q672.1563,392.0469 672.75,391.7813 Q673.3438,391.5 673.9688,390.9219 L673.9688,393.6406 Z"/><text x="685" y="392.154" fill="#000" font-family="sans-serif" font-size="12" lengthAdjust="spacingAndGlyphs" textLength="90">RenderSystem</text><rect id="HardwareBufferManager" width="184" height="32" x="641" y="280" fill="#FEFECE" codeLine="31" filter="url(#foqmuxm3x65xi)" style="stroke:#a80036;stroke-width:1.5"/><ellipse cx="656" cy="296" fill="#ADD1B2" rx="11" ry="11" style="stroke:#a80036;stroke-width:1"/><path d="M658.9688,301.6406 Q658.3906,301.9375 657.75,302.0781 Q657.1094,302.2344 656.4063,302.2344 Q653.9063,302.2344 652.5781,300.5938 Q651.2656,298.9375 651.2656,295.8125 Q651.2656,292.6875 652.5781,291.0313 Q653.9063,289.375 656.4063,289.375 Q657.1094,289.375 657.75,289.5313 Q658.4063,289.6875 658.9688,289.9844 L658.9688,292.7031 Q658.3438,292.125 657.75,291.8594 Q657.1563,291.5781 656.5313,291.5781 Q655.1875,291.5781 654.5,292.6563 Q653.8125,293.7188 653.8125,295.8125 Q653.8125,297.9063 654.5,298.9844 Q655.1875,300.0469 656.5313,300.0469 Q657.1563,300.0469 657.75,299.7813 Q658.3438,299.5 658.9688,298.9219 L658.9688,301.6406 Z"/><text x="670" y="300.154" fill="#000" font-family="sans-serif" font-size="12" lengthAdjust="spacingAndGlyphs" textLength="152">HardwareBufferManager</text><rect id="GLTexture" width="94" height="32" x="366" y="495" fill="#FEFECE" filter="url(#foqmuxm3x65xi)" style="stroke:#a80036;stroke-width:1.5"/><ellipse cx="381" cy="511" fill="#ADD1B2" rx="11" ry="11" style="stroke:#a80036;stroke-width:1"/><path d="M383.9688,516.6406 Q383.3906,516.9375 382.75,517.0781 Q382.1094,517.2344 381.4063,517.2344 Q378.9063,517.2344 377.5781,515.5938 Q376.2656,513.9375 376.2656,510.8125 Q376.2656,507.6875 377.5781,506.0313 Q378.9063,504.375 381.4063,504.375 Q382.1094,504.375 382.75,504.5313 Q383.4063,504.6875 383.9688,504.9844 L383.9688,507.7031 Q383.3438,507.125 382.75,506.8594 Q382.1563,506.5781 381.5313,506.5781 Q380.1875,506.5781 379.5,507.6563 Q378.8125,508.7188 378.8125,510.8125 Q378.8125,512.9063 379.5,513.9844 Q380.1875,515.0469 381.5313,515.0469 Q382.1563,515.0469 382.75,514.7813 Q383.3438,514.5 383.9688,513.9219 L383.9688,516.6406 Z"/><text x="395" y="515.154" fill="#000" font-family="sans-serif" font-size="12" lengthAdjust="spacingAndGlyphs" textLength="62">GLTexture</text><rect id="GLRenderSystem" width="137" height="32" x="495.5" y="495" fill="#FEFECE" filter="url(#foqmuxm3x65xi)" style="stroke:#a80036;stroke-width:1.5"/><ellipse cx="510.5" cy="511" fill="#ADD1B2" rx="11" ry="11" style="stroke:#a80036;stroke-width:1"/><path d="M513.4688,516.6406 Q512.8906,516.9375 512.25,517.0781 Q511.6094,517.2344 510.9063,517.2344 Q508.4063,517.2344 507.0781,515.5938 Q505.7656,513.9375 505.7656,510.8125 Q505.7656,507.6875 507.0781,506.0313 Q508.4063,504.375 510.9063,504.375 Q511.6094,504.375 512.25,504.5313 Q512.9063,504.6875 513.4688,504.9844 L513.4688,507.7031 Q512.8438,507.125 512.25,506.8594 Q511.6563,506.5781 511.0313,506.5781 Q509.6875,506.5781 509,507.6563 Q508.3125,508.7188 508.3125,510.8125 Q508.3125,512.9063 509,513.9844 Q509.6875,515.0469 511.0313,515.0469 Q511.6563,515.0469 512.25,514.7813 Q512.8438,514.5 513.4688,513.9219 L513.4688,516.6406 Z"/><text x="524.5" y="515.154" fill="#000" font-family="sans-serif" font-size="12" lengthAdjust="spacingAndGlyphs" textLength="105">GLRenderSystem</text><rect id="Root" width="61" height="32" x="118.5" y="49" fill="#FEFECE" codeLine="4" filter="url(#foqmuxm3x65xi)" style="stroke:#a80036;stroke-width:1.5"/><ellipse cx="133.5" cy="65" fill="#ADD1B2" rx="11" ry="11" style="stroke:#a80036;stroke-width:1"/><path d="M136.4688,70.6406 Q135.8906,70.9375 135.25,71.0781 Q134.6094,71.2344 133.9063,71.2344 Q131.4063,71.2344 130.0781,69.5938 Q128.7656,67.9375 128.7656,64.8125 Q128.7656,61.6875 130.0781,60.0313 Q131.4063,58.375 133.9063,58.375 Q134.6094,58.375 135.25,58.5313 Q135.9063,58.6875 136.4688,58.9844 L136.4688,61.7031 Q135.8438,61.125 135.25,60.8594 Q134.6563,60.5781 134.0313,60.5781 Q132.6875,60.5781 132,61.6563 Q131.3125,62.7188 131.3125,64.8125 Q131.3125,66.9063 132,67.9844 Q132.6875,69.0469 134.0313,69.0469 Q134.6563,69.0469 135.25,68.7813 Q135.8438,68.5 136.4688,67.9219 L136.4688,70.6406 Z"/><text x="147.5" y="69.154" fill="#000" font-family="sans-serif" font-size="12" lengthAdjust="spacingAndGlyphs" textLength="29">Root</text><path id="MovableObject-backto-Entity" fill="none" d="M335.93,97.21 C347.29,112.03 360.34,129.06 369.47,140.96" codeLine="6" style="stroke:#a80036;stroke-width:1"/><polygon fill="none" points="330.32 101.4 323.7 81.27 341.43 92.88 330.32 101.4" style="stroke:#a80036;stroke-width:1"/><path id="MovableObject-backto-Camera" fill="none" d="M393.19,81.4 C406.64,85.69 420.08,91.13 432,98 C451,108.95 468.13,127.72 478.76,140.93" codeLine="7" style="stroke:#a80036;stroke-width:1"/><polygon fill="none" points="390.99 88.06 373.63 75.91 394.78 74.58 390.99 88.06" style="stroke:#a80036;stroke-width:1"/><path id="MovableObject-backto-Light" fill="none" d="M300.07,100.63 C295.26,114.59 289.97,129.96 286.18,140.96" codeLine="8" style="stroke:#a80036;stroke-width:1"/><polygon fill="none" points="293.61 97.9 306.74 81.27 306.85 102.46 293.61 97.9" style="stroke:#a80036;stroke-width:1"/><path id="SceneManager-backto-OctreeSceneManager" fill="none" d="M667.07,88.65 C674.78,91.78 682.59,94.96 690,98 C725.3,112.46 765.53,129.15 793.77,140.9" codeLine="13" style="stroke:#a80036;stroke-width:1"/><polygon fill="none" points="664.3 95.08 648.4 81.08 669.56 82.11 664.3 95.08" style="stroke:#a80036;stroke-width:1"/><path id="ImageCodec-backto-FreeImageCodec" fill="none" d="M103,424.65 C103,448 103,477.31 103,494.8" codeLine="25" style="stroke:#a80036;stroke-width:1"/><polygon fill="none" points="96 424.32 103 404.32 110 424.32 96 424.32" style="stroke:#a80036;stroke-width:1"/><path id="Texture-backto-GLTexture" fill="none" d="M260.06,418.48 C269.16,427.24 279.61,436.49 290,444 C318.29,464.44 353.67,482.77 379.21,494.89" codeLine="34" style="stroke:#a80036;stroke-width:1"/><polygon fill="none" points="254.96 423.28 245.83 404.17 264.89 413.41 254.96 423.28" style="stroke:#a80036;stroke-width:1"/><path id="RenderSystem-backto-GLRenderSystem" fill="none" d="M682.02,416.66 C651.4,440.88 608.05,475.16 583.31,494.73" codeLine="35" style="stroke:#a80036;stroke-width:1"/><polygon fill="none" points="677.9 411 697.93 404.08 686.59 421.98 677.9 411" style="stroke:#a80036;stroke-width:1"/></g></svg>